inDegrees=no
num_controls=7
num_derivatives=13
num_iterations=43
num_multipliers=7
num_parameters=0
num_slacks=7
num_states=26
objective=0.460619
objective_accelerations=0.027742
objective_balance=0.005351
objective_effort=0.026585
objective_height=0.395980
objective_ligament=0.004960
solver_duration=605.806293
status=Solve_Succeeded
success=true
DataType=double
version=3
OpenSimVersion=4.5
endheader
time	/jointset/ground_pelvis/pelvis_tilt/value	/jointset/ground_pelvis/pelvis_tx/value	/jointset/ground_pelvis/pelvis_ty/value	/jointset/hip_l/hip_flexion_l/value	/jointset/hip_l/hip_adduction_l/value	/jointset/hip_l/hip_rotation_l/value	/jointset/back/lumbar_extension/value	/jointset/patellofemoral_l/patellar_flexion_l/value	/jointset/knee_l/knee_flexion_l/value	/jointset/knee_l/knee_adduction_l/value	/jointset/knee_l/knee_rotation_l/value	/jointset/ankle_l/ankle_angle_l/value	/jointset/subtalar_l/subtalar_angle_l/value	/jointset/ground_pelvis/pelvis_tilt/speed	/jointset/ground_pelvis/pelvis_tx/speed	/jointset/ground_pelvis/pelvis_ty/speed	/jointset/hip_l/hip_flexion_l/speed	/jointset/hip_l/hip_adduction_l/speed	/jointset/hip_l/hip_rotation_l/speed	/jointset/back/lumbar_extension/speed	/jointset/patellofemoral_l/patellar_flexion_l/speed	/jointset/knee_l/knee_flexion_l/speed	/jointset/knee_l/knee_adduction_l/speed	/jointset/knee_l/knee_rotation_l/speed	/jointset/ankle_l/ankle_angle_l/speed	/jointset/subtalar_l/subtalar_angle_l/speed	/forceset/tau_hip_flexion_l	/forceset/tau_hip_adduction_l	/forceset/tau_hip_rotation_l	/forceset/tau_knee_flexion_l	/forceset/tau_ankle_angle_l	/forceset/tau_subtalar_angle_l	/forceset/tau_lumbar_extension	lambda_cid13_p0	lambda_cid13_p1	lambda_cid13_p2	lambda_cid13_p3	lambda_cid13_p4	lambda_cid13_p5	lambda_cid14_p0	/jointset/ground_pelvis/pelvis_tilt/accel	/jointset/ground_pelvis/pelvis_tx/accel	/jointset/ground_pelvis/pelvis_ty/accel	/jointset/hip_l/hip_flexion_l/accel	/jointset/hip_l/hip_adduction_l/accel	/jointset/hip_l/hip_rotation_l/accel	/jointset/back/lumbar_extension/accel	/jointset/patellofemoral_l/patellar_flexion_l/accel	/jointset/knee_l/knee_flexion_l/accel	/jointset/knee_l/knee_adduction_l/accel	/jointset/knee_l/knee_rotation_l/accel	/jointset/ankle_l/ankle_angle_l/accel	/jointset/subtalar_l/subtalar_angle_l/accel	gamma_cid13_p0	gamma_cid13_p1	gamma_cid13_p2	gamma_cid13_p3	gamma_cid13_p4	gamma_cid13_p5	gamma_cid14_p0
0.5	-0.07973647184320692	0.04387975629950124	0.8372879032002395	0.6796134238616317	-0.3014437484094408	-0.0484706437131498	-0.269141751069851	0.652877409741579	0.6528774097416274	-0.1674824267621963	0.1705060969729918	0.2306246284554318	0.001806855306025796	0.2288388136410627	-0.02432475207380486	-0.25664803079368	0.8240577738352951	-0.03022038798314921	0.5754320493673988	-0.6255350281629901	1.679860213471819	1.679860213471779	-0.00667543635545433	0.01295125469239315	0.7368502096473034	0.1103124447930292	-0.02919663483110245	0.07097367081471487	-0.0364586399656992	-0.3212131386933241	0.1066997515542284	-0.01505958587289653	0.08246076468983549	-6.00903199841211	6.990020107565343	-0.8286241215873918	3.40706812655842	-611.2875610677163	-20.32966862343877	-30.27157649899345	-0.1412903885222391	0.06692194013240865	-0.3368141997162965	-0.3662548760877736	0.4018629905343413	-0.4084427553969315	0.6643278962327105	-1.026903073051427	-1.026903073051446	-0.1125401377072908	0.006804600254764498	-0.5552189383323599	0.3912818372869399	-2.152066748243601e-07	-3.937226703683068e-07	1.223051050082604e-06	7.511607869977968e-08	-1.823492903776882e-07	-7.700013128515194e-07	-1.893715808774332e-07
0.51	-0.07745562937688542	0.04363989380811374	0.8347050909462381	0.6878344676173351	-0.301726760028215	-0.04273598819343929	-0.2753629100201905	0.6696219302048513	0.6696219302048725	-0.1675569838382898	0.1706353778210206	0.2379639931054382	0.002928350497577495	0.2272879863481136	-0.02364626961104717	-0.259858116564629	0.8200412195448448	-0.02639921066279793	0.5714232956366176	-0.6186119927808341	1.668806725531196	1.668806725531189	-0.008228424321438563	0.01290627008536315	0.7309141801495831	0.1139628469503618	-0.03044006616401346	0.0718926211441971	-0.03675317041825384	-0.3255678962455489	0.1048705192270153	-0.01434313006601642	0.08433624113421694	-6.674643296066351	7.006151606303814	-1.071917323334462	3.728939305465151	-613.3816664515033	-20.21366891236084	-29.34052272925441	-0.1682589439265532	0.06855556118224913	-0.3047043606115943	-0.4358506935393337	0.3694387336600211	-0.4086452167449748	0.7190067286831965	-1.180101473765621	-1.180101473760864	-0.1754989058613214	-0.01020507674259111	-0.6290803984118265	0.348235087499298	-2.540550243566878e-07	-2.740087402973541e-07	1.409808217226323e-06	1.145196110622136e-07	-2.199873082627711e-07	-7.811164561840941e-07	-2.089227138488921e-07
0.52	-0.07519155119234285	0.04340686497371911	0.8320918581155624	0.6960120468325123	-0.301972121147624	-0.0370437309180026	-0.2815122955428153	0.6862488098248635	0.6862488098248741	-0.167646834949996	0.1707641978059061	0.245240740371886	0.004085612847210747	0.2254859572854096	-0.02295802067523074	-0.2627321461285325	0.8153648657337575	-0.02269028810740708	0.5669524005127717	-0.6111803426195641	1.656332044822665	1.656332044822691	-0.009734243480126688	0.01285908205588972	0.7243267329350621	0.1174658764094118	-0.03168349749710016	0.07281157147352087	-0.037047700870107	-0.3299226537979265	0.1030412868997431	-0.01362667425935738	0.08621171757848994	-7.348901173488558	7.020723534969306	-1.311450301544995	4.051116727561234	-615.6049454204717	-20.16180942067462	-28.39468684153208	-0.1915307424723888	0.06887523474348688	-0.2696029583072469	-0.498214780214993	0.3794120375423756	-0.5008710340096693	0.7660508520557773	-1.311141626632594	-1.311141626632595	-0.1031063762480062	0.006363915766095006	-0.6855024816931807	0.3618072976302502	-2.39267031204834e-07	-2.285320923210839e-07	1.329269695098595e-06	1.168340872326224e-07	-2.188411794427683e-07	-7.074909234918704e-07	-1.943481050281707e-07
0.53	-0.07294665795638627	0.04318073809355007	0.8294516338121993	0.7041394997749132	-0.3021808489919314	-0.03139858794692948	-0.2875850331332404	0.7027438499714499	0.702743849971495	-0.1677512043435427	0.1708925245505929	0.2524483877777328	0.005277281931047888	0.2234497668187838	-0.02226859970190923	-0.2652522805331207	0.8100221481423364	-0.01907175878879496	0.5619986880786213	-0.6032902598752803	1.642443339128609	1.642443339128607	-0.01112064764276664	0.01280487388036405	0.7170955374572492	0.120844252616129	-0.03288059394745423	0.07362352102491825	-0.03729698245124312	-0.3343008535248596	0.1012563483214256	-0.01298265887826824	0.08805042564890997	-8.015203475748757	7.06864645084501	-1.56005125465726	4.399454024907794	-617.858969970527	-20.08417107420643	-27.43820907778699	-0.2161227478395171	0.06881248515964836	-0.2341972279474067	-0.5678628202009575	0.3504058575462956	-0.5044105458268474	0.8120243249908125	-1.462594505888242	-1.46259450589273	-0.1535159014874727	-0.01175277603550932	-0.7580123200091861	0.322181780979961	-2.24440736283383e-07	-1.722727815772786e-07	1.256657383996867e-06	1.180308601226908e-07	-2.119882105357902e-07	-6.307274558316802e-07	-1.808970834032413e-07
0.54	-0.07072341853491007	0.04296147281441921	0.8267880124555088	0.7122104130270724	-0.3023539250473499	-0.02580533993974153	-0.2935765624283482	0.7190930311680638	0.7190930311681658	-0.1678688594717627	0.1710202212951761	0.2595805063809656	0.006502000576709527	0.2211551943889197	-0.02158570046759592	-0.2674115567940125	0.8040569276870849	-0.0155599303291272	0.5565734077361025	-0.5949386835558871	1.627160254830711	1.627160254830681	-0.01239139041402209	0.01273308203188221	0.709220972412081	0.1240757887743519	-0.03407769039788742	0.07443547057624322	-0.03754626403201446	-0.3386790532518435	0.09947140974309639	-0.01233864349727374	0.08988913371927161	-8.687203215496327	7.11464291305913	-1.80500429481427	4.744233608594027	-620.1954262405939	-20.06045403142479	-26.48083905281876	-0.2432071351191982	0.06757088694115662	-0.1974313295680432	-0.6227153529808931	0.3580718657535963	-0.5951846156831897	0.8583495670778871	-1.590017347400686	-1.590017347400682	-0.07997409797101282	0.002847181174848273	-0.8141763951649892	0.3324392879312063	-2.095720649359946e-07	-1.040837162821576e-07	1.192814497860075e-06	1.179910251281272e-07	-1.988212908942862e-07	-5.504922303345906e-07	-1.686891795268476e-07
